<svg width="390" height="105" viewBox="0 0 390 105" fill="none" xmlns="http://www.w3.org/2000/svg">
<path d="M167.633 28.5351V43.0806H124.542V28.5351H167.633ZM134.405 98.3532V23.4896C134.405 18.429 135.39 14.232 137.36 10.8986C139.36 7.56535 142.087 5.06535 145.542 3.39865C148.996 1.73205 152.921 0.898651 157.315 0.898651C160.284 0.898651 162.996 1.12595 165.451 1.58055C167.936 2.03505 169.784 2.44415 170.996 2.80775L167.542 17.3533C166.784 17.1109 165.845 16.8835 164.724 16.6714C163.633 16.4593 162.512 16.3533 161.36 16.3533C158.512 16.3533 156.527 17.02 155.405 18.3533C154.284 19.6562 153.724 21.4897 153.724 23.8533V98.3532H134.405ZM198.826 5.26235V98.3532H179.462V5.26235H198.826ZM245.883 99.7172C238.822 99.7172 232.716 98.2172 227.565 95.2172C222.443 92.1862 218.489 87.9742 215.701 82.5802C212.913 77.1562 211.519 70.8685 211.519 63.7169C211.519 56.5047 212.913 50.2017 215.701 44.8077C218.489 39.3835 222.443 35.1714 227.565 32.1714C232.716 29.1411 238.822 27.626 245.883 27.626C252.943 27.626 259.034 29.1411 264.155 32.1714C269.307 35.1714 273.277 39.3835 276.065 44.8077C278.852 50.2017 280.246 56.5047 280.246 63.7169C280.246 70.8685 278.852 77.1562 276.065 82.5802C273.277 87.9742 269.307 92.1862 264.155 95.2172C259.034 98.2172 252.943 99.7172 245.883 99.7172ZM245.974 84.7172C249.186 84.7172 251.868 83.8083 254.019 81.9893C256.171 80.1413 257.792 77.6263 258.883 74.4443C260.004 71.2624 260.565 67.6412 260.565 63.5806C260.565 59.52 260.004 55.8988 258.883 52.7169C257.792 49.535 256.171 47.0199 254.019 45.1714C251.868 43.3229 249.186 42.3988 245.974 42.3988C242.731 42.3988 240.004 43.3229 237.792 45.1714C235.61 47.0199 233.958 49.535 232.837 52.7169C231.746 55.8988 231.201 59.52 231.201 63.5806C231.201 67.6412 231.746 71.2624 232.837 74.4443C233.958 77.6263 235.61 80.1413 237.792 81.9893C240.004 83.8083 242.731 84.7172 245.974 84.7172ZM304.86 98.3532L285.86 28.5351H305.451L316.269 75.4443H316.905L328.178 28.5351H347.405L358.86 75.1712H359.451L370.087 28.5351H389.633L370.678 98.3532H350.178L338.178 54.4441H337.315L325.315 98.3532H304.86Z" fill="#2C47D4"/>
<path fill-rule="evenodd" clip-rule="evenodd" d="M0 48.9345C0.022964 48.5993 0.049138 48.2636 0.078549 47.9274C2.60562 19.0428 28.0698 -2.32416 56.9544 0.202944C79.2222 2.15104 97.0221 17.7312 102.851 38.0014L102.235 37.4145C100.056 35.335 97.4348 33.7747 94.5677 32.8502L91.4301 31.8385C87.7118 30.6395 83.7237 30.5558 79.9584 31.5978L77.0352 32.4067C74.9025 32.9968 72.8824 33.9369 71.0575 35.1884L66.9436 38.0098C65.1222 39.2589 63.5204 40.8011 62.203 42.5736L55.9893 50.9344C55.1152 52.1104 54.1146 53.1868 53.0054 54.1443L47.5835 58.8244C45.8028 60.3614 43.765 61.5723 41.5636 62.4013L37.126 64.0724C34.3228 65.128 31.3183 65.5406 28.3344 65.2795L24.5789 64.9509C21.5949 64.6899 18.7077 63.7619 16.1304 62.2355L11.1988 59.3148C9.73275 58.4466 8.38364 57.3945 7.18427 56.1842L0 48.9345Z" fill="#898DA2"/>
<path fill-rule="evenodd" clip-rule="evenodd" d="M104.588 56.6812C102.061 85.5663 76.5968 106.932 47.7122 104.405C27.5783 102.644 11.097 89.7383 3.81458 72.2975C5.4103 74.1317 7.33032 75.6633 9.48306 76.8133L12.9726 78.6763C15.3517 79.9463 17.9633 80.7223 20.6501 80.9573L27.879 81.5903C30.9868 81.8623 34.1151 81.4033 37.0139 80.2503L42.0794 78.2353C45.0883 77.0383 47.7617 75.1293 49.8697 72.6709L54.5736 67.1855L65.9077 55.777L72.1081 50.7874C74.8738 48.5618 78.182 47.1125 81.693 46.5883L82.1978 46.5129C85.2282 46.0604 88.322 46.3102 91.2406 47.2431L94.7222 48.3559C96.556 48.942 98.2956 49.7899 99.8873 50.8733L104.748 54.1819C104.714 55.0119 104.661 55.8451 104.588 56.6812Z" fill="#2C47D4"/>
</svg>
